<svg width="128" height="128" viewBox="0 0 128 128" fill="none" xmlns="http://www.w3.org/2000/svg">
<path d="M63.5323 5.00216C63.7899 5.00409 64.0475 5.00409 64.3051 5.00601C68.1806 5.02332 71.9734 5.14837 75.7874 5.86786C76.0027 5.90633 76.2161 5.94673 76.4372 5.98713C81.52 6.94902 86.3432 8.7843 90.9742 11.062C91.1165 11.1294 91.2587 11.1986 91.4048 11.2679C95.4899 13.2244 99.3077 15.9696 102.701 18.9495C102.885 19.1073 102.885 19.1073 103.072 19.2688C105.319 21.2061 107.424 23.3319 109.237 25.6827C109.437 25.9289 109.637 26.1733 109.837 26.4195C115.771 33.7568 120.021 42.7908 121.924 52.0384C121.99 52.3327 121.99 52.3327 122.057 52.6347C122.882 56.4804 122.984 60.2952 122.993 64.2178C122.995 64.4602 122.997 64.7026 122.999 64.9526C123.02 69.3408 122.678 73.7289 121.492 77.9727C121.407 78.2901 121.407 78.2902 121.319 78.6133C118.81 87.6935 114.337 95.9715 108.083 103.018C107.855 103.282 107.626 103.547 107.399 103.811C107.18 104.061 106.959 104.309 106.738 104.557C106.578 104.736 106.419 104.917 106.253 105.102C104.317 107.266 102.166 109.049 99.846 110.788C99.4577 111.079 99.0693 111.373 98.6829 111.668C96.3972 113.389 93.9962 114.79 91.4663 116.123C91.2068 116.262 91.2068 116.262 90.9396 116.404C88.3194 117.766 85.6185 118.851 82.8156 119.778C82.6657 119.828 82.5177 119.878 82.362 119.93C79.7533 120.796 77.1581 121.435 74.4418 121.871C74.1188 121.927 73.7958 121.985 73.471 122.041C72.579 122.194 71.6851 122.325 70.7892 122.448C70.6528 122.468 70.5163 122.489 70.374 122.51C55.935 124.574 40.5637 119.978 28.9525 111.339C28.6084 111.067 28.2643 110.794 27.9202 110.521C27.7145 110.365 27.5069 110.209 27.3012 110.054C23.6852 107.318 20.5364 104.059 17.7912 100.46C17.5509 100.146 17.3068 99.8364 17.0607 99.5286C13.7158 95.279 11.2109 90.6581 9.08093 85.7044C8.96174 85.4273 8.96174 85.4273 8.84063 85.1465C8.37157 84.0153 8.01017 82.861 7.66606 81.6875C7.52573 81.2239 7.3777 80.7641 7.22968 80.3024C4.68638 72.263 4.47299 63.4232 5.81289 55.1164C5.84749 54.8932 5.88018 54.672 5.9167 54.4431C6.37807 51.4612 6.98362 48.5563 7.92751 45.6899C8.01209 45.4341 8.01209 45.4341 8.0986 45.1724C10.7169 37.3484 15.1768 29.7976 20.8074 23.7589C21.04 23.4954 21.2727 23.2318 21.5053 22.9663C21.6129 22.8413 21.7206 22.7182 21.8301 22.5912C22.0493 22.3392 22.2665 22.0853 22.4818 21.8294C23.2681 20.9041 24.1005 20.1095 25.0367 19.3343C25.1405 19.2458 25.2462 19.1592 25.3519 19.0688C28.966 16.0408 32.8108 13.4918 36.9554 11.2544C37.1746 11.1351 37.3937 11.0159 37.6205 10.8927C45.6369 6.70662 54.5509 4.92906 63.5323 5.00216Z" fill="#1B1B1B"/>
<path d="M85.3595 20.0781C85.5192 20.1032 85.677 20.1282 85.8406 20.1532C92.1719 21.1699 97.5024 23.9406 102.294 28.165C102.435 28.2805 102.573 28.398 102.718 28.5174C108.46 33.3194 112.236 41.2195 112.984 48.5978C113.789 57.967 111.083 66.1232 105.079 73.3186C103.562 75.1035 101.954 76.7208 100.123 78.1861C99.6116 78.602 99.1247 79.0333 98.6378 79.4781C97.641 80.383 96.6076 81.2321 95.5588 82.0774C95.3452 82.2526 95.1316 82.4298 94.918 82.605C88.477 87.8884 81.2644 91.5929 73.6207 94.7853C73.3378 94.9047 73.3378 94.9047 73.0492 95.0241C70.8342 95.9464 68.6038 96.7878 66.308 97.481C66.0078 97.5714 66.0078 97.5715 65.7018 97.6639C54.9714 100.862 43.2788 101.345 33.016 96.3257C32.8659 96.2525 32.7177 96.1813 32.5618 96.1062C25.0278 92.417 18.6388 86.2961 15.8273 78.2843C13.7509 72.0035 13.7297 65.12 15.504 58.7795C15.5848 58.4907 15.5848 58.4907 15.6657 58.1942C16.8472 54.1065 18.8159 49.8455 21.6621 46.6493C21.7852 46.5029 21.9084 46.3547 22.0373 46.2025C24.7334 43.0756 27.7451 40.303 31.1205 37.9328C31.642 37.565 32.1558 37.1895 32.6677 36.8102C34.6325 35.3546 36.6569 34.0723 38.7642 32.8361C39.2837 32.5281 39.7879 32.2027 40.2921 31.8715C42.0626 30.7335 43.9254 29.7708 45.8786 28.9872C46.6003 28.6964 47.3142 28.3922 48.0263 28.0803C48.1571 28.0225 48.2899 27.9667 48.4246 27.907C49.2155 27.5585 49.9891 27.1888 50.757 26.7941C51.7211 26.3012 52.7025 25.9026 53.7167 25.5252C54.4364 25.2537 55.1523 24.9726 55.8682 24.6876C56.0933 24.5972 56.3185 24.5086 56.5513 24.4162C57.0728 24.2044 57.5847 23.9772 58.0947 23.7442C59.0223 23.3283 59.9671 22.9952 60.9313 22.6775C61.1083 22.6197 61.2853 22.56 61.4682 22.5003C62.7363 22.0864 64.0026 21.734 65.3016 21.4336C65.902 21.2912 66.4889 21.1237 67.0797 20.9446C72.7759 19.2502 79.494 19.1327 85.3595 20.0781ZM55.1196 27.9301C53.8245 28.4827 52.5236 29.0237 51.2169 29.5475C44.0543 32.4125 37.2805 36.3982 31.2321 41.1868C30.9781 41.3889 30.7221 41.5873 30.4662 41.7856C26.8329 44.6237 23.8597 47.9778 21.6852 52.0347C21.4735 52.4198 21.2502 52.7953 21.0232 53.1707C19.8416 55.1424 19.0757 57.1679 18.3906 59.3572C18.3483 59.4862 18.3079 59.6152 18.2655 59.748C17.4476 62.2993 17.1667 64.8389 17.1744 67.5076C17.1763 67.9119 17.1705 68.3163 17.1667 68.7206C17.1571 70.5479 17.3822 72.2076 17.8133 73.9905C17.8556 74.1715 17.8999 74.3525 17.9441 74.5393C19.347 80.15 22.1008 84.9771 26.6655 88.6239C26.8483 88.7722 27.0331 88.9185 27.2216 89.0706C29.5251 90.9017 31.9383 92.3959 34.5959 93.6589C34.8961 93.8014 35.1925 93.9497 35.4908 94.0979C37.0399 94.8527 38.6699 95.3091 40.3287 95.7481C40.5442 95.8058 40.7598 95.8636 40.9811 95.9233C47.4913 97.4906 54.6712 96.886 61.1064 95.3129C61.7376 95.1589 62.3688 95.0106 63 94.8623C69.6526 93.2777 75.7856 90.7092 81.8956 87.6612C82.0784 87.5707 82.2612 87.4783 82.4498 87.3859C84.5416 86.3365 86.5469 85.2255 88.4597 83.8738C88.8561 83.5947 89.2545 83.3193 89.6528 83.044C91.2289 81.9523 92.753 80.8239 94.2117 79.5743C94.3156 79.4858 94.4196 79.3953 94.5273 79.3028C94.9872 78.9101 95.4472 78.5153 95.9052 78.1206C96.598 77.5237 97.2984 76.9442 98.0124 76.3742C99.5923 75.088 100.984 73.6209 102.294 72.0651C102.519 71.8013 102.519 71.8013 102.75 71.5298C105.704 68.0351 107.854 64.3691 109.259 60.008C109.307 59.8578 109.355 59.7076 109.405 59.5536C110.09 57.3547 110.269 55.2733 110.269 52.9801C110.269 52.8261 110.269 52.672 110.269 52.5142C110.263 49.8243 109.986 47.3155 109.222 44.7238C109.174 44.5563 109.126 44.3888 109.076 44.2155C107.775 39.8544 105.525 36.0208 102.398 32.7321C102.061 32.3721 101.74 31.9986 101.428 31.6173C100.966 31.0763 100.504 30.6527 99.9483 30.2098C99.6693 29.9884 99.6693 29.9884 99.3845 29.7612C99.2017 29.6168 99.0188 29.4704 98.8303 29.3203C98.6744 29.1893 98.5204 29.0565 98.3588 28.9217C86.4814 18.9383 68.09 22.3733 55.1196 27.9301Z" fill="#E5E5E5"/>
<path d="M77.0277 26.4684C77.451 26.4703 77.8744 26.4684 78.2997 26.4665C86.6724 26.4626 94.337 29.3416 100.329 35.288C104.9 40.1132 107.251 46.3057 107.195 52.9002C107.195 53.0483 107.195 53.1944 107.195 53.3445C107.182 55.6272 107.028 57.7658 106.343 59.9562C106.276 60.1736 106.208 60.3909 106.137 60.614C104.815 64.3795 102.533 67.5969 99.8194 70.4836C99.4981 70.8278 99.1998 71.174 98.9092 71.5432C98.4243 72.1048 97.9067 72.5702 97.3409 73.051C96.8791 73.4472 96.4346 73.8587 95.9862 74.2722C95.1683 75.0107 94.3139 75.6645 93.4153 76.2992C92.8707 76.6896 92.3434 77.0954 91.8142 77.505C88.2254 80.1955 84.2151 82.4475 80.1759 84.386C79.766 84.5822 79.36 84.7822 78.9539 84.9841C75.3285 86.7554 71.5838 88.1669 67.7601 89.4401C67.6158 89.4882 67.4734 89.5362 67.3252 89.5862C64.5427 90.5093 61.7485 91.4228 58.8717 92.0017C58.6773 92.0402 58.4829 92.0786 58.2828 92.1209C48.8478 93.9806 39.4321 92.9402 31.271 87.5746C25.881 83.8879 21.9476 78.5666 20.6622 72.1086C20.6102 71.7759 20.5621 71.4432 20.5179 71.1105C20.4967 70.9547 20.4755 70.799 20.4524 70.6394C20.3909 70.0913 20.3543 69.547 20.3254 68.9951C20.3177 68.872 20.312 68.747 20.3043 68.62C19.9617 61.0486 22.8328 53.9445 27.8919 48.3808C30.0702 46.0307 32.3275 43.9172 34.9503 42.0709C35.0677 41.9863 35.1851 41.9036 35.3083 41.8171C37.248 40.4459 39.3051 39.2785 41.3776 38.1208C41.851 37.8554 42.3244 37.5881 42.7977 37.3208C46.3635 35.3111 50.0197 33.5187 53.8569 32.0859C54.3148 31.9071 54.744 31.709 55.1789 31.4821C55.914 31.0994 56.6702 30.8282 57.4496 30.557C58.0904 30.3224 58.7139 30.0551 59.3412 29.7878C62.3508 28.5589 65.5876 27.9627 68.7569 27.2992C68.8974 27.2684 69.036 27.2396 69.1784 27.2088C71.8051 26.6569 74.3471 26.4607 77.0277 26.4684ZM48.4649 38.0996C48.0223 38.3093 47.5797 38.517 47.1371 38.7247C42.1781 41.0574 37.2942 43.6806 33.2608 47.4423C32.8374 47.8365 32.3968 48.2096 31.9542 48.5866C30.9708 49.4597 30.1761 50.4578 29.3698 51.4944C29.2081 51.6963 29.0484 51.8963 28.8868 52.0983C26.5025 55.0984 24.5782 58.4754 23.7892 62.264C23.7507 62.4294 23.7103 62.5929 23.6699 62.7621C22.6038 67.9373 23.6334 73.9626 26.5179 78.382C27.4166 79.7262 28.3595 80.9801 29.5622 82.0725C29.7162 82.2321 29.872 82.3898 30.0298 82.5533C33.9458 86.3707 39.1973 88.5593 44.572 89.3805C44.7933 89.4151 45.0165 89.4497 45.2455 89.4862C49.4251 89.9843 53.7337 89.5305 57.8498 88.8035C58.048 88.7689 58.2463 88.7362 58.4502 88.7016C61.737 88.1246 64.8813 87.1477 68.0488 86.1111C68.3336 86.0207 68.3336 86.0207 68.6261 85.9284C70.1906 85.4226 71.7069 84.813 73.2195 84.1764C73.3503 84.1226 73.4792 84.0668 73.612 84.011C75.825 83.0802 77.9783 82.0629 80.1085 80.9551C80.5223 80.7436 80.9379 80.5397 81.3574 80.3416C83.5646 79.2878 85.6179 78.005 87.6769 76.6877C87.7943 76.6127 87.9098 76.5396 88.031 76.4626C90.7482 74.7299 93.2556 72.776 95.5667 70.5336C95.661 70.4432 95.7533 70.3528 95.8515 70.2605C97.1465 69.0201 98.3108 67.7162 99.4153 66.3026C99.6289 66.0392 99.6289 66.0392 99.8464 65.7719C101.886 63.1852 103.108 60.464 103.841 57.2638C103.876 57.1196 103.909 56.9734 103.945 56.8254C104.73 52.1867 103.988 47.3981 101.917 43.2248C101.751 42.8883 101.751 42.8883 101.584 42.546C100.874 41.1594 100.054 39.9728 99.0305 38.8016C98.8804 38.6266 98.7322 38.4535 98.5783 38.2727C95.1529 34.3668 90.7405 31.8398 85.7526 30.532C85.5659 30.4801 85.3793 30.4282 85.1869 30.3743C83.2644 29.8916 81.3998 29.8724 79.4273 29.8897C78.877 29.8955 78.3247 29.8936 77.7743 29.8936C67.2694 29.9089 57.8325 33.6745 48.4649 38.0996Z" fill="#E7E8E7"/>
<path d="M83.0756 36.345C83.3126 36.3469 83.5515 36.3488 83.7961 36.3508C85.4337 36.3777 86.9286 36.4815 88.4929 36.9949C88.8012 37.0892 88.8012 37.0892 89.1152 37.1853C93.5673 38.716 97.0543 42.1119 99.2004 46.2289C99.4374 46.7346 99.6551 47.2442 99.8593 47.7634C99.946 47.9672 99.946 47.9672 100.033 48.1768C101.451 51.9207 101.308 57.0915 99.6859 60.7489C97.6611 64.9909 94.3611 68.658 89.8415 70.2617C84.8615 71.7173 80.1474 71.9596 75.3928 69.6848C71.1198 67.3427 67.7292 63.5737 66.2554 58.9029C65.2825 55.5224 65.3499 51.4631 66.5309 48.148C66.5713 48.0268 66.6118 47.9057 66.6542 47.7826C68.0894 43.5233 71.2238 40.1832 75.2001 38.1487C77.745 36.9238 80.2437 36.3123 83.0756 36.345ZM73.2736 45.6481C70.8289 48.6248 70.3203 52.5053 70.5765 56.2243C70.7075 57.105 70.9946 57.9068 71.3471 58.7241C71.4165 58.8895 71.4839 59.0548 71.5533 59.226C72.1601 60.5778 73.054 61.6681 74.0442 62.7622C74.1617 62.8949 74.2792 63.0295 74.4006 63.1699C76.41 65.2121 79.5771 66.4254 82.3994 66.462C86.1041 66.4716 89.1749 65.8485 91.9279 63.1814C92.0666 63.043 92.2053 62.9045 92.3459 62.7622C92.5328 62.593 92.5328 62.593 92.7235 62.42C94.8119 60.4893 95.9331 57.4203 96.0525 54.6071C96.1354 50.8766 95.1355 47.8403 92.5386 45.0713C89.5776 42.2407 86.1253 41.2946 82.0931 41.3638C78.5927 41.5061 75.6278 43.1118 73.2736 45.6481Z" fill="#E8EAE9"/>
<path d="M56.8521 49.5002C57.532 50.0697 58.1926 50.6604 58.8474 51.2568C58.9799 51.3741 59.1124 51.4896 59.2488 51.6108C62.9283 55.0277 64.4051 59.8548 64.647 64.7223C64.8218 70.0631 62.984 74.9345 59.3448 78.842C58.5382 79.6674 57.6587 80.3869 56.735 81.0776C56.5756 81.2007 56.4143 81.3219 56.2491 81.447C54.6456 82.5686 52.8212 83.1804 50.9738 83.7711C50.6454 83.8769 50.6454 83.8769 50.3094 83.9846C45.589 85.2275 40.1466 84.3348 35.9237 81.9684C31.6066 79.298 28.4149 75.1538 27.2089 70.1843C26.1392 65.0552 26.821 59.7605 29.6574 55.297C32.5073 51.1163 36.3462 47.482 41.3718 46.2546C41.5293 46.2122 41.6868 46.168 41.85 46.1237C46.9083 44.9463 52.8251 46.2276 56.8521 49.5002ZM40.4116 51.0644C40.2772 51.1163 40.1447 51.1683 40.0064 51.2202C36.5555 52.6478 33.4732 55.6837 32.0195 59.1199C30.3814 63.2082 30.2489 67.5543 31.9292 71.6542C33.5885 75.4578 36.8282 78.1648 40.6037 79.7309C44.0796 81.0237 48.4811 80.5485 51.8188 79.094C55.0988 77.5549 58.2444 74.669 59.6098 71.2425C59.7078 70.9674 59.7078 70.9674 59.8076 70.6884C59.8825 70.4979 59.9574 70.3075 60.0342 70.1112C60.6008 68.4143 60.6564 66.7675 60.6718 64.9897C60.6757 64.755 60.6795 64.5222 60.6833 64.2817C60.6584 60.8206 59.2258 57.6577 56.927 55.1046C56.76 54.9103 56.76 54.9103 56.589 54.7121C54.5419 52.4842 51.2715 50.4237 48.2238 50.2621C47.6054 50.2506 46.9871 50.2429 46.3687 50.239C46.1037 50.2371 45.8406 50.2332 45.5775 50.2275C43.732 50.1871 42.1438 50.3968 40.4116 51.0644Z" fill="#E8EAE9"/>
<path d="M74.6779 17.3619C74.8683 17.6491 74.8683 17.6491 75.0625 17.9401C74.6395 18.1521 74.3453 18.183 73.8761 18.2312C70.8978 18.5569 68.0271 19.1891 65.1218 19.9061C64.5853 20.0371 64.0489 20.1605 63.5086 20.2781C61.8684 20.6385 60.3091 21.1184 58.7382 21.7063C58.2017 21.9048 57.6653 22.0686 57.1115 22.219C55.5233 22.6893 54.0139 23.3947 52.493 24.0481C51.8374 24.3276 51.1779 24.609 50.5203 24.8884C50.3626 24.9559 50.203 25.0234 50.0396 25.0927C48.8898 25.5823 47.7323 26.0507 46.569 26.5055C45.1827 27.0491 43.8406 27.6678 42.5023 28.3211C41.6467 28.7355 40.7988 29.094 39.8989 29.4082C37.8954 30.1522 36.2726 31.5534 34.6478 32.9122C33.7537 33.6504 32.8347 34.3559 31.9117 35.0574C31.6214 35.2752 31.3349 35.4969 31.0465 35.7166C29.9717 36.5261 28.8545 37.353 27.5701 37.7924C27.3798 37.7288 27.1894 37.6652 26.9933 37.5997C28.3642 36.025 29.7813 34.6662 31.4157 33.3594C31.7675 33.0664 32.1213 32.7735 32.4732 32.4805C34.0614 31.1853 35.6227 29.9479 37.4455 29.0015C37.9396 28.7413 38.4068 28.4541 38.8779 28.1554C40.0489 27.4403 41.3025 26.9411 42.5677 26.4207C42.7811 26.3282 42.9946 26.2357 43.2157 26.1412C44.0155 25.7982 44.8231 25.4763 45.6326 25.1563C46.6882 24.7362 47.738 24.3121 48.7802 23.8592C53.7025 21.7236 58.8612 19.8733 64.1027 18.7111C64.3623 18.6533 64.6199 18.5935 64.8795 18.5357C71.9995 16.9282 71.9995 16.9282 74.6779 17.3619Z" fill="#E1E1DF"/>
<path d="M81.1262 45.3813C81.4427 45.6452 81.4427 45.6452 81.9107 46.1232C81.8628 46.9722 81.5137 47.3528 80.8922 47.9111C80.781 48.0067 80.6697 48.1043 80.5566 48.2018C80.4434 48.3031 80.3302 48.4045 80.2132 48.5078C79.4901 49.1522 78.7574 49.787 78.0132 50.4066C77.1846 51.1925 76.7396 51.9842 76.4078 53.0665C76.3675 53.1984 76.3253 53.3304 76.2831 53.4661C75.8688 54.8907 75.794 56.3115 75.7729 57.7878C74.6873 57.8394 74.6873 57.8394 74.0946 57.369C73.2391 56.3039 73.2103 55.365 73.2199 54.0475C73.2199 53.8754 73.2218 53.7052 73.2218 53.5292C73.2621 51.334 73.7378 49.6532 75.0057 47.8442C75.1476 47.6396 75.2895 47.4331 75.4372 47.2227C76.7147 45.9492 79.2983 44.3123 81.1262 45.3813Z" fill="#E5E8EA"/>
<path d="M98.1094 84.1665C98.0998 84.6876 98.0094 85.0249 97.6539 85.4119C97.2791 85.7395 96.8927 86.0499 96.4987 86.3584C96.3546 86.4733 96.2085 86.5902 96.0605 86.709C93.5733 88.6805 91.0208 90.5639 88.3069 92.2135C88.0224 92.3898 88.0224 92.3898 87.7322 92.5718C85.5526 93.8747 83.2192 94.8901 80.907 95.9324C80.2958 96.2083 79.6865 96.488 79.0791 96.7697C77.1263 97.6548 75.16 98.404 73.1111 99.0382C72.8997 99.1052 72.6883 99.1704 72.4692 99.2393C71.4966 99.5286 70.6874 99.7202 69.663 99.6858C69.663 99.5593 69.663 99.4328 69.663 99.3026C70.7239 98.7278 71.7964 98.2545 72.9305 97.8426C75.21 97.013 77.4338 96.0512 79.6577 95.0875C79.8575 95.0012 80.0574 94.915 80.2631 94.8269C84.4551 92.9991 88.3107 90.8819 91.9454 88.1057C92.5201 87.6746 93.1159 87.2723 93.7117 86.8718C94.6036 86.2683 95.407 85.6188 96.1873 84.8812C97.3213 83.904 97.3213 83.904 98.1094 84.1665Z" fill="#E7E8E8"/>
<path d="M64.7751 104.74C65.3375 105.043 65.743 105.38 66.1141 105.908C66.3226 106.665 66.271 107.311 65.9496 108.026C65.5326 108.63 65.1003 108.906 64.404 109.034C63.635 109.077 63.1243 108.877 62.4797 108.439C61.967 107.654 61.967 107.023 62.0971 106.102C62.7398 105.004 63.5164 104.539 64.7751 104.74Z" fill="#EFF1F3"/>
<path d="M84.6528 100.156C85.2487 100.54 85.5584 100.797 85.7192 101.495C85.7642 102.237 85.678 102.596 85.2644 103.233C84.5881 103.881 84.055 103.914 83.1376 103.902C82.6927 103.823 82.6927 103.823 82.0928 103.329C81.6518 102.561 81.5675 102.181 81.7126 101.314C82.4966 100.131 83.2748 99.9552 84.6528 100.156Z" fill="#EDF0F1"/>
<path d="M43.6104 18.2483C44.1907 18.7366 44.4706 19.0292 44.6321 19.7683C44.6734 20.4713 44.5701 20.876 44.1964 21.4669C43.6855 21.9685 43.5164 22.0369 42.8008 22.1205C41.9369 22.0312 41.7115 21.7595 41.1687 21.0983C41.1067 21.0356 41.0447 20.9729 40.9809 20.9083C40.8757 19.8291 41.0579 19.28 41.7321 18.4383C42.3426 18.1305 42.953 18.1172 43.6104 18.2483Z" fill="#EDEFF0"/>
<path d="M70.8005 75.3468C71.3275 75.6951 71.6866 75.9428 71.9715 76.5078C72.0847 77.8797 72.0847 77.8797 71.6046 78.6247C71.0718 79.1374 70.904 79.2071 70.1545 79.2768C69.3212 79.2071 69.0401 79.0194 68.4585 78.4428C68.1521 77.8333 68.1951 77.3747 68.2634 76.7013C68.9074 75.6293 69.5456 75.2249 70.8005 75.3468Z" fill="#EBECED"/>
<path d="M108.633 81.2935C109.092 81.5908 109.092 81.5908 109.386 82.0558C109.499 83.0889 109.458 83.6816 108.821 84.5336C108.527 84.8309 108.239 84.7852 107.832 84.808C107.331 84.8023 107.036 84.7909 106.616 84.5088C106.2 84.0438 106.004 83.6206 105.879 83.0088C106.043 82.2083 106.375 81.8767 106.938 81.2935C107.539 80.9904 107.992 81.1486 108.633 81.2935Z" fill="#E6E8E9"/>
</svg>
